<?xml version="1.0" encoding="UTF-8"?>
<svg id="Layer_2" data-name="Layer 2" xmlns="http://www.w3.org/2000/svg" viewBox="0 0 517.41 220.62">
  <defs>
    <style>
      .cls-1 {
        fill: none;
      }

      .cls-1, .cls-2 {
        stroke-width: 0px;
      }
    </style>
  </defs>
  <g id="Layer_1-2" data-name="Layer 1">
    <path class="cls-1" d="m371.59,133.04c-.71-.28-2.4.29-5.06,1.72-2.72,1.54-5.26,3.42-7.64,5.63-2.38,2.21-3.79,4.55-4.24,7.01-.28,1.43-.07,2.44.63,3.02.7.59,1.86.38,3.49-.63,1.62-1.15,3.37-2.59,5.25-4.33,1.88-1.74,3.54-3.58,5-5.54,1.26-1.74,2.18-3.25,2.77-4.54.59-1.29.53-2.07-.19-2.35Z"/>
    <g>
      <path class="cls-2" d="m428.87,12.23c4.23-.94,14.58-3.92,18.49-5.8,2.66-1.41,3.61-2.98,3.29-4.7-.16-.94-.63-1.72-1.57-1.72-.78,0-1.25.16-2.04.63-4.39,2.82-12.32,6.48-19.53,9.45-.63.31-.69,1.67-.53,2.14.16.47,1.41.16,1.88,0Z"/>
      <path class="cls-2" d="m214,137.47c-.43-1.13-1.43-1.83-3-2.08h-1.3c-1.01-.06-2.04.1-3.11.46-.2.06-.36.13-.5.21-.53.22-1.05.38-1.55.46-.17-.08-.35-.15-.55-.21-.5-.25-1.01-.34-1.51-.25-.81,0-1.6.17-2.37.5-.77.34-1.56.78-2.37,1.34-2.41,1.65-4.61,3.58-6.59,5.79-2.46,2.91-3.37,5.24-2.71,6.99.66,1.75,3,2.65,7.03,2.71h.38c5.09-.25,10.3-3.26,15.62-9.03.78-.87,1.43-1.79,1.93-2.77.84-1.62,1.04-3,.61-4.14Zm-5.29,3.74c-.99,1.67-2.67,3.42-5.04,5.27-2.37,1.85-4.77,3.11-7.2,3.78-2.16.5-3.22.19-3.19-.95.03-1.13.78-2.58,2.27-4.35,1.48-1.76,3.34-3.32,5.56-4.68,2.22-1.36,4.43-1.99,6.61-1.91,1.65.22,1.98,1.17.99,2.83Z"/>
      <path class="cls-2" d="m213.85,159.03c-.17.62.01,1.05.55,1.3.64.31,1.34.36,2.1.15s1.43-.65,2.02-1.32c.67-.76,1.33-1.57,1.97-2.44,1.46-2.21,1.04-3.32-1.26-3.32-1.9-.11-3.29.76-4.16,2.6-.5,1.04-.91,2.04-1.22,3.02Z"/>
      <path class="cls-2" d="m517.12,44.88c-.31-.77-.71-1.46-1.22-2.08-2.02-2.27-4.44-4.04-7.26-5.33-5.29-2.66-12.53-4.75-21.73-6.26-9.2-1.51-19.76-2.42-31.68-2.73-11.93-.31-24.63.02-38.11.99-13.48.97-27.06,2.6-40.75,4.91s-26.89,5.33-39.6,9.05c-12.71,3.72-24.33,8.22-34.88,13.48-10.54,5.26-19.32,11.31-26.35,18.14-6.36,6.1-10.11,12.75-11.25,19.95-.62,4.4-.39,8.5.67,12.3,1.54,5.24,3.78,10.04,6.72,14.4,3.13,4.76,6.4,9.41,9.78,13.94,2.02,2.72,4.04,5.43,6.09,8.15,5.77,7.28,11.25,14.8,16.46,22.55,2.07,3.13,3.95,6.37,5.63,9.7,1.57,3.13,1.92,5.5,1.05,7.1-.87,1.6-2.49,2.67-4.87,3.23-2.38.56-5.07.76-8.06.61-3-.15-5.86-.43-8.59-.84-2.73-.41-4.85-.79-6.36-1.15-.34-.06-.63-.08-.88-.08-.11-.06-.29-.08-.55-.08-1.2-.2-3.02-.57-5.44-1.11-2.42-.54-4.75-1.3-6.99-2.27-2.24-.96-3.74-2.14-4.49-3.53-.76-1.38-.1-3,1.97-4.85,1.02-.84,2.06-1.62,3.11-2.34,5.39.36,10.77.74,16.16,1.15.57.05,1.16.08,1.73.13.72.12,3.01.21,3.57.32.69.05,1.3.08,1.88.09,2.36.04,3.8-.36,4.63-2.08.02-.04.04-.07.06-.11.4-.89.47-1.9.23-2.92-.13-.57-.36-1.14-.68-1.69-1.01-1.73-3.64-2.69-5.85-3.21-.11-.03-.22-.06-.32-.08h0c-4.59-.75-9.63-.22-15.11,1.63-2.88.91-5.64,2.15-8.29,3.7-37.25-2.61-75.25-3.37-113.99-2.24-6.97.2-13.96.45-20.96.76-3.36.2-6.68.35-9.95.46-1.15.06-2.28.08-3.4.08h-.08c-.42,0-.66-.15-.73-.46-.07-.31.05-.64.36-1.01,1.34-1.34,2.71-2.67,4.12-3.99,5.15-4.93,11.49-11.44,19.02-19.53,7.53-8.09,15.47-16.96,23.81-26.6,8.34-9.64,16.22-19.24,23.64-28.79,7.42-9.55,13.56-18.21,18.41-25.99,4.86-7.78,7.65-13.93,8.38-18.43.45-4.2-1.12-6.94-4.7-8.23-1.96-.67-4.13-.98-6.51-.92-1.32-.06-2.69.04-4.12.29-5.82.87-13.36,3.1-22.61,6.7-9.25,3.6-19.28,8.17-30.07,13.71-10.79,5.54-21.35,11.64-31.68,18.29-10.33,6.65-19.48,13.49-27.46,20.51-7.98,7.03-13.77,13.8-17.38,20.32-2.66,5.12-2.37,9.13.88,12.01,1.37,1.18,3.01,2.04,4.91,2.6,3.7,1.09,7.7,1.52,12.01,1.28,4.31-.24,8.69-.73,13.14-1.49,3.67-.56,7.25-.99,10.75-1.3.56-.06,1.02-.39,1.39-1.01.2-.36.21-.62.04-.78-.17-.15-.38-.23-.63-.23-.92-.11-1.9-.17-2.94-.17-2.46,0-5.03.27-7.68.8-4.31.81-8.69,1.32-13.14,1.53s-8.3-.54-11.55-2.25c-3.95-2.41-4.41-6.23-1.39-11.46,3.64-6.1,9.23-12.42,16.78-18.94,7.54-6.52,16.21-12.94,25.99-19.25,9.78-6.31,19.74-12.12,29.86-17.43,10.12-5.3,19.55-9.74,28.3-13.31,8.75-3.57,15.85-5.87,21.31-6.91,1.26-.31,2.48-.46,3.65-.46.5,0,1.02.03,1.55.08,3.72.56,5.36,2.81,4.91,6.76-.36,2.46-1.18,4.93-2.44,7.39-4.23,8.12-10.06,17.25-17.51,27.38-7.45,10.13-15.72,20.55-24.82,31.26s-18.23,20.91-27.4,30.61c-9.17,9.7-17.56,18.16-25.17,25.38-2.07,1.96-4.37,3.04-6.89,3.23-6.21.42-13.14,1.06-20.79,1.93-7.64.87-15.54,2.04-23.68,3.51s-16.06,3.38-23.75,5.73-14.7,5.22-21.06,8.61c-4.17,2.16-7.94,4.88-11.3,8.19-4.87,5.12-6.17,9.89-3.91,14.32,1.48,2.55,3.56,4.49,6.21,5.84,5.6,3.02,11.48,4.55,17.66,4.58s12.53-1.1,19.06-3.38c6.54-2.28,13.09-5.36,19.67-9.24,6.58-3.88,13.13-8.25,19.65-13.12,9.27-6.89,18.21-14.18,26.83-21.88,1.96-1.9,4.09-2.9,6.38-2.98,2.38-.06,4.76-.17,7.14-.34,2.58-.25,5.1-.41,7.56-.46,23.68-.76,46.88-1.07,69.6-.95,20.83.12,41.71.81,62.62,2.07-.43.32-.87.65-1.29.99-3.98,3.3-4.9,6.44-2.77,9.41,1.06,1.43,3.29,2.81,6.68,4.16,3.39,1.34,7.4,2.5,12.05,3.46,4.65.96,9.38,1.58,14.21,1.85,4.83.27,9.23.05,13.21-.65,3.97-.7,6.99-2.04,9.05-4.01,2.06-1.97,2.65-4.75,1.78-8.34-.95-3.13-2.34-5.99-4.16-8.57-.36-.45-.69-.91-.97-1.39-3.33-4.98-6.75-9.91-10.25-14.78-3.19-4.31-6.4-8.57-9.62-12.77-3.28-4.37-6.51-8.73-9.7-13.1-3.89-4.93-7.1-10.34-9.62-16.25-1.71-3.95-2.52-8.33-2.44-13.14.22-7.03,3.42-13.7,9.57-20.03,7.28-7.28,16.59-13.6,27.92-18.96,11.34-5.36,23.87-9.84,37.6-13.44,13.73-3.6,27.76-6.42,42.08-8.48,14.32-2.06,28.09-3.44,41.32-4.16,13.23-.71,25.05-.87,35.46-.46,10.41.41,18.56,1.28,24.44,2.62,3.5.87,6.91,1.88,10.23,3.04,3.32,1.16,6.4,2.67,9.26,4.51,1.32.81,2.46,1.76,3.42,2.83.96,1.08,1.45,2.54,1.45,4.39,0,.67.25,1.12.76,1.34.5.22,1.12.18,1.85-.13,1.26-.62,2.02-1.51,2.27-2.69.2-1.06.14-1.98-.17-2.75Zm-236.06,120.54c3.34-.84,6.35-.92,9.05-.28,1.16.46,2.76,1.42,3.46,2.06.49.45.43,1.16.26,1.54-.14.31-1.23.72-2.51.85-.89.09-1.88.05-2.7-.25-.01,0-.02,0-.03,0-4.88-.44-9.77-.84-14.67-1.21,2.33-1.18,4.71-2.09,7.15-2.7Zm-179.43,8.97c-.97.87-1.88,1.66-2.75,2.39-.53.42-1.02.83-1.47,1.22-4.54,3.86-9.88,8.12-16.04,12.77-6.16,4.65-12.69,9.08-19.59,13.31-6.9,4.23-13.75,7.6-20.53,10.12-6.79,2.52-13.08,3.56-18.88,3.13-5.79-.44-10.67-2.92-14.61-7.46-3.3-4.31-1.99-9.03,3.95-14.15,1.96-1.65,4-3.14,6.13-4.45,6.24-3.75,13.61-6.87,22.09-9.37s16.92-4.46,25.32-5.9c8.4-1.44,15.71-2.44,21.92-3,2.69-.31,5.39-.62,8.1-.92,2.1-.25,4.18-.5,6.26-.76h2.94c-.92,1.18-1.87,2.2-2.83,3.07Z"/>
      <path class="cls-2" d="m371.28,144.08c2.88-3.39,4.69-6.72,5.42-9.99.73-2.88-.38-4.35-3.32-4.41-.78,0-2.02.27-3.7.82s-3.23,1.41-4.66,2.58c1.88-2.27,4.02-4.76,6.42-7.47,2.24-2.58,4.12-4.76,5.63-6.55.59-.76,1.2-1.53,1.85-2.31,4.34-5.29,8.65-10.62,12.93-16,.22-.25.39-.46.5-.63,1.06-1.23,1.99-2.49,2.77-3.78.14-.25.05-.43-.27-.53-.32-.1-.74-.11-1.26-.04-.52.07-1.04.18-1.55.34-.52.15-.89.34-1.11.57-1.18,1.37-2.31,2.7-3.4,3.99-.9,1.12-1.81,2.2-2.73,3.23-2.27,2.66-4.59,5.4-6.97,8.23-5.49,6.33-11.03,12.82-16.63,19.48-3.75,4.47-7.26,8.81-10.58,13.05-.82.61-1.71,1.25-2.67,1.92-1.86,1.3-3.57,2.18-5.12,2.65-1.55.46-2.58.46-3.09,0s.1-2.02,1.81-4.68c.42-.62.83-1.23,1.22-1.85.92-1.65.46-2.48-1.39-2.48-1.34.11-2.62.63-3.82,1.55-2.6,1.79-5.24,3.54-7.89,5.25l-.17.13c-.53.31-1.19.69-1.97,1.15-.78.46-1.53.81-2.23,1.05-.7.24-1.27.27-1.72.11-.11-.14-.11-.33,0-.57.11-.24.27-.45.46-.65,3.75-4.51,8.23-8.02,13.44-10.54,1.15-.56,2.16-.93,3.04-1.11.88-.18,1.53.29,1.95,1.41.03.06.08.1.17.13.08.03.15.04.21.04.7.31,1.47.18,2.31-.38.64-.48.99-1.02,1.05-1.64.34-2.04-.42-3.12-2.27-3.23-1.85-.2-3.79.14-5.84,1.01-3.78,1.48-7.45,3.46-11,5.92-3.08,2.21-5.75,4.73-8.02,7.56-1.46,1.79-2.03,3.21-1.72,4.26s1.39,1.63,3.23,1.74c2.52.14,5.14-.45,7.85-1.76,1.09-.53,3.43-1.97,7.01-4.33-1.76,5.24,1.13,6.65,8.69,4.24.6-.23,1.18-.49,1.77-.78-.02.02-.03.04-.05.06-.48.73-.5,1.34-.08,1.85.14.11.34.2.61.25.27.06.54.03.82-.08.45-.2.88-.48,1.3-.84.36-.25.68-.47.95-.65.27-.18.5-.27.69-.27.92,1.85,2.39,2.85,4.39,3,2,.15,4.39-.41,7.16-1.7,3.5-2.16,6.69-4.93,9.57-8.31Zm-7.26,1.39c-1.88,1.74-3.63,3.18-5.25,4.33-1.62,1.01-2.79,1.22-3.49.63-.7-.59-.91-1.6-.63-3.02.45-2.46,1.86-4.8,4.24-7.01,2.38-2.21,4.93-4.09,7.64-5.63,2.66-1.43,4.35-2,5.06-1.72.71.28.78,1.06.19,2.35-.59,1.29-1.51,2.8-2.77,4.54-1.46,1.96-3.12,3.81-5,5.54Z"/>
      <path class="cls-2" d="m462.49,143.01c-1.34,1.08-2.95,2.27-4.81,3.57-1.86,1.3-3.57,2.18-5.12,2.65-1.55.46-2.58.46-3.09,0s.1-2.02,1.81-4.68c.42-.62.83-1.23,1.22-1.85.92-1.65.46-2.48-1.39-2.48-1.34.11-2.62.63-3.82,1.55-2.6,1.79-5.24,3.54-7.89,5.25l-.17.13c-.53.31-1.19.69-1.97,1.15-.78.46-1.53.81-2.23,1.05-.7.24-1.27.27-1.72.11-.11-.14-.11-.33,0-.57.11-.24.27-.45.46-.65,3.75-4.51,8.23-8.02,13.44-10.54,1.15-.56,2.16-.93,3.04-1.11.88-.18,1.53.29,1.95,1.41.03.06.08.1.17.13.08.03.15.04.21.04.7.31,1.47.18,2.31-.38.64-.48.99-1.02,1.05-1.64.34-2.04-.42-3.12-2.27-3.23-1.85-.2-3.79.14-5.84,1.01-3.78,1.48-7.45,3.46-11,5.92-2.07,1.49-3.95,3.13-5.65,4.9l-3.42,1.65c-4.98,2.21-7.6,2.98-7.85,2.31s.24-1.65,1.47-2.94c1.09-1.37,2.18-2.76,3.28-4.16,1.09-1.54,1.44-2.74,1.05-3.61-.39-.87-1.44-1.25-3.15-1.13-1.09.14-2.18.41-3.28.8-1.09.39-2.17.84-3.23,1.34-1.18.56-2.41,1.15-3.7,1.76-.5.25-1.01.49-1.51.71-.34.08-.49.01-.46-.21.03-.22.17-.5.42-.84s.52-.69.8-1.05c.53-.62.91-1.15,1.13-1.6.17-.48.12-.9-.15-1.28-.27-.38-.65-.52-1.16-.44-1.2.22-2.25.8-3.15,1.72-1.97,2.12-3.95,4.26-5.92,6.4-.99.75-2.08,1.55-3.3,2.4-1.86,1.3-3.57,2.18-5.12,2.65-1.55.46-2.58.46-3.09,0s.1-2.02,1.81-4.68c.42-.62.83-1.23,1.22-1.85.92-1.65.46-2.48-1.39-2.48-1.34.11-2.62.63-3.82,1.55-2.6,1.79-5.24,3.54-7.89,5.25l-.17.13c-.53.31-1.19.69-1.97,1.15-.78.46-1.53.81-2.23,1.05-.7.24-1.27.27-1.72.11-.11-.14-.11-.33,0-.57.11-.24.27-.45.46-.65,3.75-4.51,8.23-8.02,13.44-10.54,1.15-.56,2.16-.93,3.04-1.11.88-.18,1.53.29,1.95,1.41.03.06.08.1.17.13.08.03.15.04.21.04.7.31,1.47.18,2.31-.38.64-.48.99-1.02,1.05-1.64.34-2.04-.42-3.12-2.27-3.23-1.85-.2-3.79.14-5.84,1.01-3.78,1.48-7.45,3.46-11,5.92-3.08,2.21-5.75,4.73-8.02,7.56-1.46,1.79-2.03,3.21-1.72,4.26s1.39,1.63,3.23,1.74c2.52.14,5.14-.45,7.85-1.76,1.09-.53,3.43-1.97,7.01-4.33-1.76,5.24,1.13,6.65,8.69,4.24.2-.07.39-.17.58-.25-.47.53-.59,1.02-.35,1.48.24.46.72.69,1.45.69,1.46-.11,2.86-.73,4.2-1.85,4.67-3.39,9.49-6.4,14.45-9.03,1.9-.98,3.09-1.44,3.55-1.39.46.06-.09,1.04-1.66,2.94-1.54,1.85-2.65,3.71-3.32,5.58-.67,1.88-.18,2.93,1.47,3.15,1.65.22,3.36,0,5.12-.67,2.48-.92,4.71-1.84,6.7-2.77-.41.86-.54,1.59-.36,2.2.31,1.05,1.39,1.63,3.23,1.74,2.52.14,5.14-.45,7.85-1.76,1.09-.53,3.43-1.97,7.01-4.33-1.76,5.24,1.13,6.65,8.69,4.24.95-.36,1.89-.8,2.81-1.3,0-.06.04-.08.13-.08,1.37-.73,2.69-1.55,3.95-2.48s2.49-1.92,3.7-2.98c1.09-1.46,1.37-2.37.84-2.75-.53-.38-1.47-.03-2.81,1.05Z"/>
    </g>
  </g>
</svg>